<svg width="25" height="22" viewBox="0 0 25 22" fill="none" xmlns="http://www.w3.org/2000/svg">
<path d="M25 0H0V3H25V0Z" fill="#FF4000"/>
<path d="M25 19H0V22H25V19Z" fill="#FF4000"/>
<path d="M5 5H2V17H5V5Z" fill="#FF4000"/>
<path d="M10.67 5H7.67V17H10.67V5Z" fill="#FF4000"/>
<path d="M16.33 5H13.33V17H16.33V5Z" fill="#FF4000"/>
<path d="M23 5H20V17H23V5Z" fill="#FF4000"/>
<path d="M19.78 8.09961H16.6C16.5337 8.09961 16.4701 8.12595 16.4232 8.17283C16.3763 8.21972 16.35 8.28331 16.35 8.34961V13.1596C16.35 13.2259 16.3763 13.2895 16.4232 13.3364C16.4701 13.3833 16.5337 13.4096 16.6 13.4096H19.78C19.8446 13.407 19.9056 13.3795 19.9504 13.3329C19.9951 13.2863 20.0201 13.2242 20.02 13.1596V8.34961C20.0201 8.285 19.9951 8.22288 19.9504 8.17628C19.9056 8.12967 19.8446 8.10219 19.78 8.09961ZM18.9 11.8896C18.9058 11.8993 18.9087 11.9105 18.9084 11.9218C18.9081 11.9331 18.9046 11.9441 18.8983 11.9535C18.892 11.9629 18.8832 11.9703 18.8729 11.975C18.8626 11.9796 18.8512 11.9812 18.84 11.9796H17.53C17.5196 11.9793 17.5095 11.9763 17.5007 11.9709C17.4918 11.9654 17.4845 11.9578 17.4795 11.9488C17.4745 11.9397 17.4719 11.9295 17.472 11.9191C17.472 11.9088 17.4748 11.8986 17.48 11.8896L17.81 11.1196C17.6976 11.0547 17.6043 10.9615 17.5394 10.8491C17.4744 10.7368 17.4402 10.6094 17.44 10.4796C17.44 10.2807 17.519 10.0899 17.6597 9.94928C17.8003 9.80863 17.9911 9.72961 18.19 9.72961C18.3889 9.72961 18.5797 9.80863 18.7203 9.94928C18.861 10.0899 18.94 10.2807 18.94 10.4796C18.9399 10.6094 18.9056 10.7368 18.8407 10.8491C18.7757 10.9615 18.6824 11.0547 18.57 11.1196L18.9 11.8896Z" fill="#FF4000"/>
</svg>
