<svg width="21" height="14" viewBox="0 0 21 14" fill="none" xmlns="http://www.w3.org/2000/svg">
<g clip-path="url(#clip0_455:5082)">
<path d="M20.87 0.760457C20.919 2.15481 20.4805 3.52265 19.63 4.62866C18.7795 5.73468 17.5702 6.50972 16.21 6.82046C11.29 8.13046 1.11 10.8205 0.939998 10.9005C0.852721 10.9299 0.760427 10.9416 0.668557 10.9349C0.576688 10.9281 0.487103 10.903 0.405085 10.8611C0.323068 10.8191 0.25028 10.7612 0.191012 10.6907C0.131744 10.6201 0.0871969 10.5385 0.0599978 10.4505C0.022443 10.3646 0.00249969 10.2721 0.00134973 10.1785C0.000199783 10.0848 0.0178666 9.99181 0.0533032 9.90509C0.0887398 9.81836 0.141225 9.73963 0.207649 9.67356C0.274072 9.60749 0.353083 9.55543 0.439998 9.52046L3.7 7.91046L19.43 0.240457C19.5836 0.159353 19.7443 0.0924095 19.91 0.0404568C20.0219 -0.00208908 20.1428 -0.015627 20.2614 0.00110258C20.38 0.0178322 20.4924 0.0642857 20.5882 0.136141C20.684 0.207996 20.7601 0.302918 20.8094 0.412074C20.8586 0.521231 20.8795 0.641075 20.87 0.760457Z" fill="#FF4000"/>
<path d="M19.49 13.6801C19.1582 13.726 18.8218 13.726 18.49 13.6801C16.7931 13.5686 15.1691 12.9483 13.83 11.9001C13.634 11.7562 13.3922 11.6886 13.15 11.7101C10.43 12.1401 7.71 12.6001 5 13.0501C4 13.2201 3.9 10.9501 4.16 10.8801C7.41 10.0001 10.65 9.15008 13.9 8.28008C15.07 7.97008 16.24 7.66008 17.41 7.33008C18.36 7.07008 18.63 7.33008 18.53 8.23008C18.53 8.43008 18.53 8.62008 18.47 8.82008C18.29 10.2801 18.29 10.2701 16.84 10.5101C16.6157 10.5685 16.405 10.6704 16.22 10.8101C16.2031 10.8183 16.1888 10.8311 16.1789 10.847C16.1689 10.8629 16.1636 10.8813 16.1636 10.9001C16.1636 10.9189 16.1689 10.9373 16.1789 10.9532C16.1888 10.9691 16.2031 10.9819 16.22 10.9901C16.4273 11.0931 16.6617 11.1281 16.89 11.0901C17.454 10.8668 18.0761 10.837 18.6588 11.0053C19.2415 11.1736 19.7519 11.5305 20.11 12.0201C20.26 12.1801 21.11 13.2401 20.4 13.5101C20.1006 13.5861 19.7966 13.6429 19.49 13.6801ZM14.35 11.3101C14.385 11.3922 14.4413 11.4634 14.5132 11.5164C14.585 11.5694 14.6697 11.6021 14.7585 11.6113C14.8473 11.6205 14.9369 11.6058 15.018 11.5686C15.0992 11.5315 15.1689 11.4733 15.22 11.4001C15.22 11.3301 15.29 11.2801 15.28 11.2401C15.2599 11.1604 15.2184 11.0878 15.16 11.0301C15.1141 10.9736 15.0561 10.9281 14.9904 10.8969C14.9246 10.8656 14.8528 10.8494 14.78 10.8494C14.7072 10.8494 14.6354 10.8656 14.5696 10.8969C14.5039 10.9281 14.4459 10.9736 14.4 11.0301C14.3638 11.0639 14.3423 11.1106 14.34 11.1601C14.3279 11.2099 14.3314 11.2623 14.35 11.3101Z" fill="#FF4000"/>
</g>
<defs>
<clipPath id="clip0_455:5082">
<rect width="20.87" height="13.72" fill="white"/>
</clipPath>
</defs>
</svg>
