<svg version="1.2" baseProfile="tiny-ps" xmlns="http://www.w3.org/2000/svg" viewBox="0 0 24 24" width="24" height="24">
	<title>school-svg</title>
	<style>
		tspan { white-space:pre }
		.shp0 { fill: #ff4000;stroke: #000000;paint-order:stroke fill markers;stroke-opacity:0.5;stroke-width: 2 } 
		.shp1 { fill: #ff4000 } 
	</style>
	<path id="Layer" fill-rule="evenodd" class="shp0" d="M23 6L23 20.6C23 20.85 22.75 21.1 22.5 21.1C22.4 21.1 22.35 21.1 22.25 21.05C20.85 20.3 19.15 20 17.5 20C15.8 20 13.35 20.65 12 21.5C10.55 20.4 8.45 20 6.5 20C5.05 20 3.1 20.45 1.75 21.1C1.65 21.1 1.6 21.15 1.5 21.15C1.25 21.15 1 20.9 1 20.65L1 6C2.45 4.9 4.55 4.5 6.5 4.5C8.45 4.5 10.55 4.9 12 6C13.45 4.9 15.55 4.5 17.5 4.5C18.67 4.5 19.89 4.65 21 5C21.75 5.25 22.4 5.55 23 6ZM21 7C19.9 6.65 18.7 6.5 17.5 6.5C15.8 6.5 13.35 7.15 12 8L12 19.5C13.35 18.65 15.8 18 17.5 18C18.7 18 19.9 18.15 21 18.5L21 7Z" />
	<path id="Layer" class="shp1" d="M13 11.49L13 9.83C14.26 9.29 15.8 9 17.5 9C18.36 9 19.21 9.09 20 9.24L20 10.76C19.23 10.59 18.38 10.5 17.5 10.5C15.7 10.5 14.13 10.85 13 11.49Z" />
	<path id="Layer" class="shp1" d="M17.5 11.66C18.36 11.66 19.21 11.75 20 11.9L20 13.42C19.23 13.25 18.38 13.16 17.5 13.16C15.7 13.16 14.13 13.51 13 14.15L13 12.49C14.26 11.96 15.8 11.66 17.5 11.66Z" />
	<path id="Layer" class="shp1" d="M20 14.57L20 16.09C19.23 15.92 18.38 15.83 17.5 15.83C15.7 15.83 14.13 16.18 13 16.82L13 15.16C14.26 14.62 15.8 14.33 17.5 14.33C18.36 14.33 19.21 14.41 20 14.57Z" />
</svg>